<svg width="22" height="23" viewBox="0 0 22 23" fill="none" xmlns="http://www.w3.org/2000/svg">
<g id="Cart">
<g id="Union">
<mask id="path-1-outside-1_36_5" maskUnits="userSpaceOnUse" x="0" y="0" width="22" height="23" fill="black">
<rect fill="white" width="22" height="23"/>
<path fill-rule="evenodd" clip-rule="evenodd" d="M3.07489 16.2785C3.0864 16.1931 3.10073 16.0958 3.11857 15.9859C3.10073 16.0958 3.0864 16.1931 3.07489 16.2785ZM19.1037 11.3642L19.1742 11.8592L17.5963 12.0848C16.6389 12.2215 15.3446 12.4059 13.9977 12.5969C11.3071 12.9785 8.39719 13.3875 7.54911 13.4932C6.80422 13.5861 6.06375 13.9147 5.48805 14.3883C5.09634 14.7105 4.79688 15.0857 4.6168 15.4812H20.3342V17.2785H2.52785L2.52785 16.7785L2.52785 16.7768L2.52786 16.7748L2.52791 16.7698L2.52817 16.7555C2.52844 16.7442 2.52892 16.7291 2.5298 16.7101C2.53156 16.6722 2.53488 16.6185 2.54113 16.5477C2.55361 16.4065 2.5778 16.197 2.62469 15.9079C2.89209 14.1707 4.1449 12.8565 5.63748 12.1952L3.10792 2.81167H1V1H4.37674L4.90672 2.52785H20.3799L19.5672 11.8029L19.1742 11.8592C19.1742 11.8592 19.1746 11.8591 19.1037 11.3642ZM17.8505 10.2267L7.3297 11.7175L5.46478 4.32042H18.4807L17.8505 10.2267ZM7.69363 21.8873C8.35252 21.8873 8.88727 21.3525 8.88727 20.6936C8.88727 20.0347 8.35252 19.5 7.69363 19.5C7.03475 19.5 6.5 20.0347 6.5 20.6936C6.5 21.3525 7.03475 21.8873 7.69363 21.8873ZM14.4443 21.8873C15.1032 21.8873 15.6379 21.3525 15.6379 20.6936C15.6379 20.0347 15.1032 19.5 14.4443 19.5C13.7854 19.5 13.2507 20.0347 13.2507 20.6936C13.2507 21.3525 13.7854 21.8873 14.4443 21.8873Z"/>
</mask>
<path fill-rule="evenodd" clip-rule="evenodd" d="M3.07489 16.2785C3.0864 16.1931 3.10073 16.0958 3.11857 15.9859C3.10073 16.0958 3.0864 16.1931 3.07489 16.2785ZM19.1037 11.3642L19.1742 11.8592L17.5963 12.0848C16.6389 12.2215 15.3446 12.4059 13.9977 12.5969C11.3071 12.9785 8.39719 13.3875 7.54911 13.4932C6.80422 13.5861 6.06375 13.9147 5.48805 14.3883C5.09634 14.7105 4.79688 15.0857 4.6168 15.4812H20.3342V17.2785H2.52785L2.52785 16.7785L2.52785 16.7768L2.52786 16.7748L2.52791 16.7698L2.52817 16.7555C2.52844 16.7442 2.52892 16.7291 2.5298 16.7101C2.53156 16.6722 2.53488 16.6185 2.54113 16.5477C2.55361 16.4065 2.5778 16.197 2.62469 15.9079C2.89209 14.1707 4.1449 12.8565 5.63748 12.1952L3.10792 2.81167H1V1H4.37674L4.90672 2.52785H20.3799L19.5672 11.8029L19.1742 11.8592C19.1742 11.8592 19.1746 11.8591 19.1037 11.3642ZM17.8505 10.2267L7.3297 11.7175L5.46478 4.32042H18.4807L17.8505 10.2267ZM7.69363 21.8873C8.35252 21.8873 8.88727 21.3525 8.88727 20.6936C8.88727 20.0347 8.35252 19.5 7.69363 19.5C7.03475 19.5 6.5 20.0347 6.5 20.6936C6.5 21.3525 7.03475 21.8873 7.69363 21.8873ZM14.4443 21.8873C15.1032 21.8873 15.6379 21.3525 15.6379 20.6936C15.6379 20.0347 15.1032 19.5 14.4443 19.5C13.7854 19.5 13.2507 20.0347 13.2507 20.6936C13.2507 21.3525 13.7854 21.8873 14.4443 21.8873Z" fill="white"/>
<path d="M19.1037 11.3642L20.0936 11.2224L18.1137 11.5051L19.1037 11.3642ZM17.5963 12.0848L17.7376 13.0747L17.7378 13.0747L17.5963 12.0848ZM13.9977 12.5969L14.1381 13.587H14.1381L13.9977 12.5969ZM7.54911 13.4932L7.6728 14.4856H7.6728L7.54911 13.4932ZM5.48805 14.3883L6.12331 15.1606H6.12331L5.48805 14.3883ZM4.6168 15.4812L3.70673 15.0667L3.06256 16.4812H4.6168V15.4812ZM20.3342 15.4812H21.3342V14.4812H20.3342V15.4812ZM20.3342 17.2785V18.2785H21.3342V17.2785H20.3342ZM2.52785 17.2785H1.52785L1.52785 18.2785H2.52785V17.2785ZM2.52785 16.7785L1.52785 16.777V16.7785H2.52785ZM2.52785 16.7768L1.52786 16.7723L1.52786 16.7753L2.52785 16.7768ZM2.52786 16.7748L1.52789 16.7657L1.52787 16.7703L2.52786 16.7748ZM2.52791 16.7698L1.52803 16.7515L1.52795 16.7606L2.52791 16.7698ZM2.52817 16.7555L1.52843 16.7319L1.52833 16.7373L2.52817 16.7555ZM2.5298 16.7101L3.52874 16.7563L3.52874 16.7563L2.5298 16.7101ZM2.54113 16.5477L3.53725 16.6357L3.53725 16.6357L2.54113 16.5477ZM2.62469 15.9079L3.61182 16.068L3.61305 16.06L2.62469 15.9079ZM5.63748 12.1952L6.04251 13.1095L6.82608 12.7624L6.60301 11.935L5.63748 12.1952ZM3.10792 2.81167L4.07345 2.55139L3.87404 1.81167H3.10792V2.81167ZM1 2.81167H0V3.81167H1V2.81167ZM1 1V0H0V1H1ZM4.37674 1L5.32152 0.672281L5.08832 0H4.37674V1ZM4.90672 2.52785L3.96194 2.85557L4.19514 3.52785H4.90672V2.52785ZM20.3799 2.52785L21.3761 2.61515L21.4714 1.52785H20.3799V2.52785ZM19.5672 11.8029L19.709 12.7928L20.4941 12.6803L20.5634 11.8902L19.5672 11.8029ZM7.3297 11.7175L6.36004 11.962L6.57983 12.8338L7.47 12.7076L7.3297 11.7175ZM17.8505 10.2267L17.9908 11.2168L18.7622 11.1075L18.8449 10.3328L17.8505 10.2267ZM5.46478 4.32042V3.32042H4.18137L4.49512 4.56489L5.46478 4.32042ZM18.4807 4.32042L19.475 4.42652L19.5931 3.32042H18.4807V4.32042ZM4.06593 16.4121C4.07619 16.3359 4.08919 16.2475 4.10564 16.1462L2.1315 15.8256C2.11227 15.9441 2.0966 16.0503 2.08384 16.145L4.06593 16.4121ZM4.06593 16.4121C4.07619 16.3359 4.08919 16.2475 4.10564 16.1462L2.1315 15.8256C2.11227 15.9441 2.0966 16.0503 2.08384 16.145L4.06593 16.4121ZM18.1137 11.5051L18.1841 12.0001L20.1642 11.7183L20.0937 11.2233L18.1137 11.5051ZM17.7378 13.0747L19.3157 12.8491L19.0326 10.8693L17.4548 11.0948L17.7378 13.0747ZM14.1381 13.587C15.4855 13.3959 16.78 13.2114 17.7376 13.0747L17.455 11.0948C16.4977 11.2315 15.2038 11.4159 13.8573 11.6068L14.1381 13.587ZM7.6728 14.4856C8.53163 14.3785 11.453 13.9678 14.1381 13.587L13.8573 11.6068C11.1611 11.9892 8.26275 12.3966 7.42542 12.5009L7.6728 14.4856ZM6.12331 15.1606C6.55886 14.8023 7.12352 14.554 7.6728 14.4856L7.42542 12.5009C6.48493 12.6181 5.56864 13.0272 4.8528 13.616L6.12331 15.1606ZM5.52686 15.8956C5.63385 15.6607 5.82921 15.4025 6.12331 15.1606L4.8528 13.616C4.36347 14.0185 3.9599 14.5108 3.70673 15.0667L5.52686 15.8956ZM20.3342 14.4812H4.6168V16.4812H20.3342V14.4812ZM21.3342 17.2785V15.4812H19.3342V17.2785H21.3342ZM2.52785 18.2785H20.3342V16.2785H2.52785V18.2785ZM1.52785 16.7785L1.52785 17.2785H3.52785V16.7785H1.52785ZM1.52786 16.7753L1.52785 16.777L3.52785 16.7801L3.52785 16.7784L1.52786 16.7753ZM1.52787 16.7703L1.52786 16.7723L3.52784 16.7814L3.52785 16.7794L1.52787 16.7703ZM1.52795 16.7606L1.5279 16.7657L3.52782 16.7839L3.52787 16.7789L1.52795 16.7606ZM1.52833 16.7373L1.52808 16.7515L3.52774 16.788L3.528 16.7738L1.52833 16.7373ZM1.53087 16.664C1.52965 16.6903 1.5289 16.7129 1.52845 16.7319L3.52789 16.7792C3.52798 16.7756 3.5282 16.768 3.52874 16.7563L1.53087 16.664ZM1.54501 16.4597C1.53759 16.5437 1.5333 16.6114 1.53087 16.664L3.52874 16.7563C3.52981 16.733 3.53217 16.6933 3.53725 16.6357L1.54501 16.4597ZM1.6376 15.7478C1.58719 16.0584 1.55982 16.2921 1.54501 16.4597L3.53725 16.6357C3.5474 16.5209 3.5684 16.3355 3.61179 16.068L1.6376 15.7478ZM5.23245 11.2809C3.50147 12.0478 1.96669 13.6095 1.63633 15.7558L3.61305 16.06C3.81748 14.7319 4.78833 13.6651 6.04251 13.1095L5.23245 11.2809ZM2.14239 3.07195L4.67195 12.4555L6.60301 11.935L4.07345 2.55139L2.14239 3.07195ZM1 3.81167H3.10792V1.81167H1V3.81167ZM0 1V2.81167H2V1H0ZM4.37674 0H1V2H4.37674V0ZM5.85149 2.20013L5.32152 0.672281L3.43197 1.32772L3.96194 2.85557L5.85149 2.20013ZM20.3799 1.52785H4.90672V3.52785H20.3799V1.52785ZM20.5634 11.8902L21.3761 2.61515L19.3838 2.44056L18.571 11.7156L20.5634 11.8902ZM19.316 12.8491L19.709 12.7928L19.4254 10.813L19.0323 10.8693L19.316 12.8491ZM19.3104 12.8499C19.3104 12.8499 19.3226 12.8481 19.3346 12.8462C19.3465 12.8442 19.3816 12.8374 19.4048 12.8322C19.4667 12.8176 19.5536 12.7908 19.6491 12.7392C19.8602 12.6253 19.9901 12.459 20.0632 12.3171C20.1708 12.1082 20.1727 11.9136 20.1729 11.9104C20.1754 11.8618 20.1736 11.8238 20.173 11.8116C20.1722 11.7949 20.1712 11.7815 20.1706 11.7746C20.1694 11.7606 20.1682 11.7497 20.1678 11.746C20.1672 11.741 20.1667 11.7369 20.1664 11.7346C20.1654 11.7268 20.1644 11.7194 20.1639 11.7156C20.1625 11.7055 20.1601 11.6882 20.1557 11.6572C20.1468 11.5944 20.1291 11.4699 20.0936 11.2224L18.1138 11.506C18.1493 11.7534 18.1668 11.8765 18.1754 11.9374C18.1798 11.9683 18.1817 11.9819 18.1824 11.9873C18.183 11.9913 18.1825 11.9877 18.1817 11.9819C18.1815 11.98 18.1811 11.9763 18.1805 11.9716C18.1801 11.9681 18.1789 11.9574 18.1777 11.9436C18.1772 11.9367 18.1761 11.9234 18.1753 11.9067C18.1747 11.8946 18.173 11.8566 18.1755 11.808C18.1767 11.7834 18.1799 11.7379 18.19 11.6818C18.1989 11.6324 18.2217 11.5246 18.2852 11.4013C18.3582 11.2594 18.4881 11.0931 18.6992 10.9792C18.7948 10.9276 18.8816 10.9008 18.9435 10.8862C18.9667 10.881 19.0018 10.8742 19.0137 10.8722C19.0258 10.8703 19.0379 10.8685 19.0379 10.8685L19.3104 12.8499ZM7.47 12.7076L17.9908 11.2168L17.7102 9.2366L7.1894 10.7274L7.47 12.7076ZM4.49512 4.56489L6.36004 11.962L8.29936 11.4731L6.43444 4.07596L4.49512 4.56489ZM18.4807 3.32042H5.46478V5.32042H18.4807V3.32042ZM18.8449 10.3328L19.475 4.42652L17.4863 4.21433L16.8562 10.1206L18.8449 10.3328ZM7.88727 20.6936C7.88727 20.8002 7.80024 20.8873 7.69363 20.8873V22.8873C8.9048 22.8873 9.88727 21.9048 9.88727 20.6936H7.88727ZM7.69363 20.5C7.80024 20.5 7.88727 20.587 7.88727 20.6936H9.88727C9.88727 19.4825 8.9048 18.5 7.69363 18.5V20.5ZM7.5 20.6936C7.5 20.587 7.58703 20.5 7.69363 20.5V18.5C6.48246 18.5 5.5 19.4825 5.5 20.6936H7.5ZM7.69363 20.8873C7.58703 20.8873 7.5 20.8002 7.5 20.6936H5.5C5.5 21.9048 6.48246 22.8873 7.69363 22.8873V20.8873ZM14.6379 20.6936C14.6379 20.8002 14.5509 20.8873 14.4443 20.8873V22.8873C15.6555 22.8873 16.6379 21.9048 16.6379 20.6936H14.6379ZM14.4443 20.5C14.5509 20.5 14.6379 20.587 14.6379 20.6936H16.6379C16.6379 19.4825 15.6555 18.5 14.4443 18.5V20.5ZM14.2507 20.6936C14.2507 20.587 14.3377 20.5 14.4443 20.5V18.5C13.2331 18.5 12.2507 19.4825 12.2507 20.6936H14.2507ZM14.4443 20.8873C14.3377 20.8873 14.2507 20.8002 14.2507 20.6936H12.2507C12.2507 21.9048 13.2331 22.8873 14.4443 22.8873V20.8873Z" fill="black" mask="url(#path-1-outside-1_36_5)"/>
</g>
</g>
</svg>
