<svg width="23" height="23" viewBox="0 0 23 23" fill="none" xmlns="http://www.w3.org/2000/svg">
<g id="homeicon">
<path id="Vector 2" d="M6.5 21.5V20.9H6.45034L6.40136 20.9082L6.5 21.5ZM3 19H2.4V19.0497L2.40816 19.0986L3 19ZM3.6 14C3.6 13.6686 3.33137 13.4 3 13.4C2.66863 13.4 2.4 13.6686 2.4 14H3.6ZM11.5 20.9H6.5V22.1H11.5V20.9ZM6.40136 20.9082C5.99607 20.9757 5.35388 20.9528 4.79076 20.6746C4.26145 20.4131 3.75969 19.9085 3.59184 18.9014L2.40816 19.0986C2.64031 20.4915 3.38855 21.3203 4.25924 21.7504C5.09612 22.1639 6.00393 22.191 6.59864 22.0918L6.40136 20.9082ZM3.6 19V14H2.4V19H3.6Z" fill="black"/>
<path id="Vector 3" d="M15.5 21.5V20.9H15.5497L15.5986 20.9082L15.5 21.5ZM19 19H19.6V19.0497L19.5918 19.0986L19 19ZM18.4 14C18.4 13.6686 18.6686 13.4 19 13.4C19.3314 13.4 19.6 13.6686 19.6 14H18.4ZM10.5 20.9L15.5 20.9V22.1L10.5 22.1V20.9ZM15.5986 20.9082C16.0039 20.9757 16.6461 20.9528 17.2092 20.6746C17.7386 20.4131 18.2403 19.9085 18.4082 18.9014L19.5918 19.0986C19.3597 20.4915 18.6114 21.3203 17.7408 21.7504C16.9039 22.1639 15.9961 22.191 15.4014 22.0918L15.5986 20.9082ZM18.4 19L18.4 14H19.6L19.6 19H18.4Z" fill="black"/>
<path id="Vector 4" d="M0.575736 11.5757C0.341421 11.8101 0.341421 12.1899 0.575736 12.4243C0.81005 12.6586 1.18995 12.6586 1.42426 12.4243L0.575736 11.5757ZM11.5757 0.575736L0.575736 11.5757L1.42426 12.4243L12.4243 1.42426L11.5757 0.575736Z" fill="black"/>
<path id="Vector 5" d="M22.4243 11.5757C22.6586 11.8101 22.6586 12.1899 22.4243 12.4243C22.1899 12.6586 21.8101 12.6586 21.5757 12.4243L22.4243 11.5757ZM11.4243 0.575736L22.4243 11.5757L21.5757 12.4243L10.5757 1.42426L11.4243 0.575736Z" fill="black"/>
</g>
</svg>
