<svg width="21" height="21" viewBox="0 0 21 21" fill="none" xmlns="http://www.w3.org/2000/svg">
<g id="love">
<path id="Vector (Stroke)" fill-rule="evenodd" clip-rule="evenodd" d="M0.0351636 6.6135C0.33924 3.30231 2.69785 0.849976 5.69563 0.849976C7.52419 0.849976 9.16519 1.76514 10.1973 3.29122C11.2463 1.78056 12.9507 0.85036 14.8043 0.85036C17.8026 0.85036 20.1608 3.30286 20.4652 6.61418C20.494 6.80136 20.5811 7.57643 20.2898 8.8091C19.863 10.618 18.8777 12.2597 17.4454 13.5579L17.4439 13.5592L10.1887 20.0317L3.05454 13.5576C1.62216 12.2597 0.636878 10.6176 0.210073 8.80908M0.0351636 6.6135C0.00571208 6.80185 -0.0809359 7.57693 0.210073 8.80908L0.0351636 6.6135ZM5.69563 2.11926C3.41085 2.11926 1.53837 4.03295 1.29705 6.75014L1.2964 6.75747L1.28955 6.8036C1.28343 6.84748 1.26512 6.98814 1.26995 7.23538C1.27563 7.52572 1.31363 7.95906 1.44558 8.51759C1.81224 10.0706 2.66159 11.4884 3.90721 12.617L10.1962 18.3244L16.595 12.6154L16.5958 12.6147C17.8387 11.4886 18.6881 10.0708 19.0543 8.51806C19.1863 7.95954 19.2243 7.52603 19.2299 7.23538C19.2353 6.9565 19.2111 6.80777 19.2093 6.79662L19.2081 6.78723C18.9617 4.03222 17.0881 2.11964 14.8047 2.11964C13.064 2.11964 11.4813 3.19012 10.7774 4.857L10.1928 6.24263L9.60829 4.85711C8.8905 3.15804 7.38862 2.11926 5.69563 2.11926Z" fill="black"/>
</g>
</svg>
